<?xml version="1.0" standalone="no"?>
<!DOCTYPE svg PUBLIC "-//W3C//DTD SVG 20010904//EN"
 "http://www.w3.org/TR/2001/REC-SVG-20010904/DTD/svg10.dtd">
<svg version="1.0" xmlns="http://www.w3.org/2000/svg"
 width="227.000000pt" height="224.000000pt" viewBox="0 0 227.000000 224.000000"
 preserveAspectRatio="xMidYMid meet">
<metadata>
Created by potrace 1.14, written by Peter Selinger 2001-2017
</metadata>
<g transform="translate(0.000000,224.000000) scale(0.100000,-0.100000)"
fill="#000000" stroke="none">
<path d="M1605 1720 c-5 -30 -8 -63 -7 -73 1 -10 -2 -15 -8 -12 -6 4 -7 -1 -3
-11 4 -12 3 -15 -5 -10 -8 5 -10 2 -6 -9 4 -9 3 -15 -2 -13 -5 2 -10 0 -12 -4
-2 -4 -18 -22 -35 -42 l-31 -35 -24 67 c-25 68 -81 156 -107 165 -8 4 -2 -13
16 -41 62 -97 77 -226 38 -324 -11 -29 -24 -71 -28 -93 -6 -37 -11 -42 -69
-69 -34 -16 -62 -33 -62 -37 0 -4 21 4 47 19 25 14 43 20 39 14 -12 -20 -84
-53 -91 -42 -4 6 -19 5 -40 -4 -60 -26 -66 4 -30 154 6 24 6 24 -7 5 -7 -11
-13 -22 -14 -25 -8 -39 -18 -59 -27 -53 -6 4 -8 0 -4 -10 3 -10 3 -17 -2 -17
-13 0 -21 -109 -12 -173 l8 -57 -31 -9 c-39 -11 -47 -3 -76 77 -27 74 -24 142
9 219 l21 48 -35 -40 c-20 -21 -33 -45 -30 -53 2 -7 1 -11 -4 -8 -5 3 -14 -8
-20 -24 -5 -17 -12 -30 -14 -30 -18 0 -128 86 -132 103 -3 12 -9 65 -14 117
-9 101 -1 187 24 248 21 49 19 52 -9 12 -13 -19 -22 -40 -19 -46 2 -6 -2 -18
-10 -25 -8 -8 -17 -32 -21 -53 l-7 -39 -32 32 c-18 17 -40 53 -49 79 l-16 47
-1 -38 c-1 -48 18 -94 59 -141 30 -33 34 -45 38 -113 5 -72 4 -76 -14 -69 -10
4 -31 9 -47 11 -37 5 -44 11 -64 48 -15 31 -15 31 2 17 18 -15 18 -14 1 13
-10 15 -23 27 -28 27 -5 0 -6 10 -3 21 5 14 3 19 -4 15 -7 -5 -10 5 -9 26 1
18 1 56 -1 83 l-3 50 -9 -55 c-10 -69 4 -161 31 -206 26 -42 75 -81 206 -167
90 -59 104 -72 133 -126 l32 -60 -75 -78 c-49 -51 -103 -95 -158 -127 -45 -28
-91 -56 -100 -65 -28 -23 -22 -59 17 -98 34 -34 38 -35 83 -28 71 12 172 11
218 -3 l42 -12 -9 -38 c-5 -20 -8 -59 -8 -87 l0 -50 18 62 c26 89 44 113 87
113 39 0 100 28 127 58 l19 21 -48 -15 c-36 -11 -100 -14 -249 -13 -110 1
-210 0 -223 -1 -51 -5 -84 67 -42 90 17 9 60 6 83 -7 4 -3 2 -12 -5 -21 -11
-13 -10 -15 14 -10 15 3 29 0 32 -6 2 -6 5 1 5 16 1 21 -6 31 -30 44 l-32 16
59 38 c33 20 87 67 122 104 61 64 100 83 117 56 4 -7 14 -5 28 5 34 24 75 19
89 -10 15 -33 23 -32 38 5 7 17 22 42 33 57 23 29 120 78 125 63 2 -6 -1 -33
-8 -60 -11 -47 -54 -100 -91 -112 -8 -3 -3 -23 19 -69 18 -38 50 -142 74 -242
23 -97 43 -175 46 -173 7 8 -19 192 -40 276 -11 47 -31 109 -44 138 l-23 53
32 33 c36 35 57 92 57 150 l0 37 -47 -7 c-40 -5 -78 -18 -126 -42 -5 -2 -7 6
-5 19 2 18 24 32 104 68 130 59 277 148 342 206 53 48 102 132 102 174 0 23
-3 21 -19 -14 -25 -56 -118 -160 -144 -162 -12 -1 -43 -11 -69 -22 l-48 -20 0
29 c0 36 12 65 73 165 57 95 79 165 75 237 l-3 53 -10 -55z"/>
</g>
</svg>
